<svg xmlns="http://www.w3.org/2000/svg" viewBox="0 0 200 200" width="200" height="200">
  <defs>
    <linearGradient id="bg-andres" x1="0%" y1="0%" x2="100%" y2="100%">
      <stop offset="0%" style="stop-color:#dc2626"/>
      <stop offset="100%" style="stop-color:#b91c1c"/>
    </linearGradient>
  </defs>
  <rect width="200" height="200" rx="100" fill="url(#bg-andres)"/>
  <!-- Neck -->
  <rect x="82" y="130" width="36" height="24" rx="5" fill="#a0714f"/>
  <!-- Shoulders -->
  <ellipse cx="100" cy="175" rx="56" ry="30" fill="#292524"/>
  <!-- Jacket collar -->
  <path d="M74 155 L86 162 L100 152 L114 162 L126 155" fill="none" stroke="#44403c" stroke-width="2.5"/>
  <!-- Face (angular/rugged) -->
  <ellipse cx="100" cy="100" rx="41" ry="46" fill="#a0714f"/>
  <path d="M62 112 Q82 142 100 144 Q118 142 138 112" fill="#a0714f"/>
  <!-- Hair (dark, slightly wavy) -->
  <path d="M58 80 Q62 48 100 44 Q138 48 142 80" fill="#0a0a0a"/>
  <path d="M60 78 Q72 60 88 68 Q95 55 110 62 Q125 55 138 75" fill="#0a0a0a"/>
  <!-- Eyes (intense) -->
  <ellipse cx="82" cy="100" rx="5.5" ry="4" fill="white"/>
  <ellipse cx="118" cy="100" rx="5.5" ry="4" fill="white"/>
  <circle cx="83" cy="100" r="3" fill="#1a1a0e"/>
  <circle cx="119" cy="100" r="3" fill="#1a1a0e"/>
  <circle cx="84" cy="99" r="0.8" fill="white"/>
  <circle cx="120" cy="99" r="0.8" fill="white"/>
  <!-- Strong eyebrows -->
  <path d="M72 91 Q82 86 92 90" fill="none" stroke="#0a0a0a" stroke-width="2.5"/>
  <path d="M108 90 Q118 86 128 91" fill="none" stroke="#0a0a0a" stroke-width="2.5"/>
  <!-- Nose -->
  <path d="M97 107 Q100 115 103 107" fill="none" stroke="#8c614a" stroke-width="1.5"/>
  <!-- Serious expression -->
  <line x1="88" y1="122" x2="112" y2="122" stroke="#8c614a" stroke-width="2" stroke-linecap="round"/>
  <!-- Beard/stubble -->
  <rect x="78" y="125" width="44" height="18" rx="8" fill="#0a0a0a" opacity="0.15"/>
</svg>
