<svg xmlns="http://www.w3.org/2000/svg" viewBox="0 0 200 200" width="200" height="200">
  <defs>
    <linearGradient id="bg-camila" x1="0%" y1="0%" x2="100%" y2="100%">
      <stop offset="0%" style="stop-color:#e11d48"/>
      <stop offset="100%" style="stop-color:#be123c"/>
    </linearGradient>
  </defs>
  <rect width="200" height="200" rx="100" fill="url(#bg-camila)"/>
  <!-- Neck -->
  <rect x="83" y="130" width="34" height="24" rx="5" fill="#a0714f"/>
  <!-- Shoulders -->
  <ellipse cx="100" cy="175" rx="55" ry="30" fill="#831843"/>
  <!-- Neckline -->
  <path d="M78 155 L100 168 L122 155" fill="#9f1239" stroke="#fda4af" stroke-width="1"/>
  <!-- Face -->
  <ellipse cx="100" cy="100" rx="41" ry="47" fill="#a0714f"/>
  <!-- Hair (curly, voluminous) -->
  <circle cx="70" cy="70" r="22" fill="#1a1a2e"/>
  <circle cx="100" cy="60" r="25" fill="#1a1a2e"/>
  <circle cx="130" cy="70" r="22" fill="#1a1a2e"/>
  <circle cx="55" cy="90" r="18" fill="#1a1a2e"/>
  <circle cx="145" cy="90" r="18" fill="#1a1a2e"/>
  <circle cx="52" cy="110" r="15" fill="#1a1a2e"/>
  <circle cx="148" cy="110" r="15" fill="#1a1a2e"/>
  <!-- Eyes -->
  <ellipse cx="82" cy="100" rx="6" ry="5" fill="white"/>
  <ellipse cx="118" cy="100" rx="6" ry="5" fill="white"/>
  <circle cx="83" cy="100" r="3.5" fill="#3d1f0e"/>
  <circle cx="119" cy="100" r="3.5" fill="#3d1f0e"/>
  <circle cx="84" cy="99" r="1" fill="white"/>
  <circle cx="120" cy="99" r="1" fill="white"/>
  <!-- Eyebrows -->
  <path d="M74 92 Q82 88 90 92" fill="none" stroke="#1a1a2e" stroke-width="1.8"/>
  <path d="M110 92 Q118 88 126 92" fill="none" stroke="#1a1a2e" stroke-width="1.8"/>
  <!-- Nose -->
  <path d="M97 106 Q100 113 103 106" fill="none" stroke="#8c614a" stroke-width="1.5"/>
  <!-- Smile -->
  <path d="M86 118 Q100 128 114 118" fill="#c4756e" stroke="#a0524b" stroke-width="0.5"/>
  <!-- Lip highlight -->
  <ellipse cx="100" cy="119" rx="6" ry="2" fill="#d4857e" opacity="0.5"/>
</svg>
